<svg xmlns="http://www.w3.org/2000/svg" width="199" height="62" viewBox="0 0 199 62"><path fill="#fff" d="M195 3.5c-2 0-3.8 1.6-3.8 3.8 0 2.2 1.8 3.8 3.8 3.8s3.8-1.6 3.8-3.8c0-2.2-1.8-3.8-3.8-3.8"/><path fill="#fff" d="M192.8 2.3l-20.6 2.2V2.8h-15.1v1.4l-.6-1.3-12.3-.1v1.5l-24.9-3.7-1.3 8.6v-.9c0-5.4-4.2-5.6-4.2-5.6H95.5c-1.5 0-2.8.6-3.8 1.5L76 1.6c-2.1-.2-4.2.7-5.4 2.4-.3.4-.6 1-.8 1.5l-.2-4.1-19.6 1.2c-1.8.1-3.6.8-4.9 2l.1-2.3-16.5-.6-.1 3.6c-1.3-1.2-2.9-1.9-4.6-2.1L3.1 1.9 0 34.1l20.9 2c.3 0 .5 0 .8 0 1.8 0 3.6-.6 5-1.8l1-.9v1.3l14.8.5v.7l6.8-.3c-3.5 2.2-5.8 6.1-5.8 10.5v3.5c0 6.9 5.6 12.4 12.4 12.4l82.3.1c6.9 0 12.4-5.6 12.4-12.4v-3.5c0-4.7-2.6-8.8-6.4-10.9h27.9V19.5l2.5-.3c.2 2.2 1.8 17.3 1.8 17.3l15.8-1.7s-1.3-12.3-1.8-17.3l3.8-.4-1.6-14.9"/><path fill="#fff" d="M138.3 35.3H56c-5.9 0-10.7 4.8-10.7 10.7v3.5c0 5.9 4.8 10.7 10.7 10.7h82.3c5.9 0 10.7-4.8 10.7-10.7V46c0-5.9-4.8-10.7-10.7-10.7"/><path fill="none" stroke="#fff" stroke-width=".7" d="M138.3 35.3H56c-5.9 0-10.7 4.8-10.7 10.7v3.5c0 5.9 4.8 10.7 10.7 10.7h82.3c5.9 0 10.7-4.8 10.7-10.7V46c0-5.9-4.8-10.7-10.7-10.7z"/><path d="M56 36c-5.5 0-10 4.5-10 10v3.5c0 5.5 4.5 10 10 10h82.3c5.5 0 10-4.5 10-10V46c0-5.5-4.5-10-10-10H56"/><path fill="#fff" d="M46.7 49.6V46c0-5.1 4.2-9.3 9.3-9.3h82.3c5.1 0 9.3 4.2 9.3 9.3v3.5c0 5.1-4.2 9.3-9.3 9.3H56c-5.1 0-9.3-4.2-9.3-9.3"/><path d="M136 39.4v4h-9.4v2.3h8v3.9h-8v2.6h9.7v4.1h-15.8V39.4H136m-23.1 14.8c0-2.6.1-5.2-3.5-5.8 2.4-.5 3.6-2.2 3.6-4.3 0-3.4-3.3-4.8-6.8-4.8h-10.9v17h6v-5.9h3.4c3.1 0 2.1 4.2 2.5 5.9h5.7v-2.2m-8.5-7.5h-3.1v-3.3h3.4c1.4 0 2.4.4 2.4 1.8s-1.5 1.5-2.7 1.5M73.6 39.4v4.3h-5.8v12.7h-6.2V43.7h-5.8v-4.3h17.8m7.2 0h6.2v17h-6.2v-17"/><path d="M50.2 5.6c-1.4.1-2.8.7-3.7 1.7-.9 1-1.4 2.3-1.4 3.6l.3 6.3c.1 1.7 1.3 2.7 2.5 3l7.1 2c.6.2 1.5 1.4.4 1.4l-10.9.5.4 9.2 18-.7c1.4-.1 2.8-.7 3.7-1.7 1-1.1 1.5-2.4 1.4-3.9l-.2-5.8c-.1-1.7-1.4-2.8-2.6-3l-6.6-1.9c-1-.3-2.3-2.2-.4-2.3l9.7-.4-.4-8.8-16.9-.7"/><path d="M31 6.3l-.9 26 11.7.4.9-27.5-11.7-.4v1.5m-3.5 2L24 6.3l-18.5-1.6L2.6 31.9l18.5 1.8c1.5.1 2.9-.3 4.1-1.2 1.1-.9 1.9-2.3 2-3.8l1.6-16.3c.1-1.5-.3-3-1.3-4.1m-9.7 15.4c0 .3-.2.6-.4.8-.2.2-.6.3-.9.3l-3.4-.3c.2-2.1.8-8.5 1-10.6l3.4.3c.6.1 1.1.6 1.1 1.2-.1 0-.8 8.3-.8 8.3"/><path d="M71.8 8.4 70 27.3c-.2 2.1 1.3 3.9 3.3 4.1l14 1.3.8-8.4-6.1-.6c-.3 0-.6-.2-.8-.4-.2-.3-.3-.6-.3-1l.7-7.1c0-.4.2-.7.5-.9.2-.2.6-.3.9-.3l6.1.6.8-8.3-13.1-1.3c-2-.2-3.9 1.3-4.1 3.4m23.7-3.4c-1.8 0-3.2 1.4-3.2 3.2v19.8c0 1.8 1.4 3.2 3.2 3.2H112c1.8 0 3.2-1.4 3.2-3.2V8.2c0-1.8-1.4-3.2-3.2-3.2h-17m6.5 17.1v-8.1c0-.7.6-1.3 1.3-1.3h1.5c.7 0 1.3.6 1.3 1.3v8.1c0 .7-.6 1.3-1.3 1.3h-1.5c-.7 0-1.3-.6-1.3-1.3m15.9 4.5c-.1.9.1 1.7.6 2.4s1.3 1.1 2.1 1.3l17.2 2.5c1.8.3 3.4-1 3.7-2.7l3.4-23.3-9.7-1.4-2.5 16.9c-.1.7-.8 1.2-1.5 1.1l-1.5-.2c-.4-.1-.7-.2-.9-.5s-.3-.6-.3-1l2.5-16.9-10-1.4-3.4 23.3m28.7 6.2h10v-7.3c1.6 3.2 3.5 7.3 3.5 7.3h9.7V5.2h-10.3v9.7c-2-4.2-4.5-9.6-4.5-9.6l-8.4-.1v27.6m25.4-25.9 1.1 10.1 3.8-.4c.3 2.5 1.8 17.3 1.8 17.3l11.1-1.2s-1.6-14.8-1.8-17.3l3.8-.4-1.1-10.1-17.7 2"/><path fill="#ED1C24" d="m46.8 17.2-.3-6.1c-.1-2.1 1.6-3.9 3.7-4L66 6.4l.2 5.8-8.2.3c-1.4.1-2.5 1.1-2.4 2.4.1 1.2 1.2 2.6 2.5 2.9l6.7 1.9c0 0 1.4.3 1.4 1.6l.2 5.8c.1 2.1-1.6 3.9-3.7 4l-16.4.7-.3-6.2 9.4-.4c1.2 0 2-.9 2-2 0-1-.9-2.1-2.1-2.4l-7.2-2c0 .1-1.2-.2-1.3-1.5M40.4 31.2l-8.7-.3.8-24.5 8.7.3-.9 24.5m-16.8-23.4L6.7 6.1 4.3 30.5l17 1.7c2.2.2 4.2-1.4 4.4-3.6l1.6-16.3c.2-2.3-1.4-4.3-3.7-4.5m-4.3 16.1c-.1 1.5-1.5 2.6-3 2.4l-4.9-.5 1.3-13.6 4.9.5c1.5.1 2.6 1.5 2.4 3l-.7 8.2M86.4 25.7l-4.6-.4c-1.5-.1-2.6-1.5-2.5-3.1l.7-7.1c.1-1.6 1.5-2.7 3-2.6l4.6.4.5-5.3-12.5-1.2c-1.2-.1-2.3.8-2.4 2l-1.8 18.9c-.1 1.2.8 2.3 2 2.5l12.5 1.2.5-5.3m26-19.2H95.5c-.9 0-1.7.7-1.7 1.7v19.8c0 .9.8 1.7 1.7 1.7H112c.9 0 1.7-.7 1.7-1.7V8.2c0-.9-.7-1.7-1.7-1.7m-4.9 15.6c0 1.5-1.3 2.8-2.8 2.8h-1.5c-1.5 0-2.8-1.2-2.8-2.8v-8.1c0-1.5 1.3-2.8 2.8-2.8h1.5c1.5 0 2.8 1.2 2.8 2.8v8.1m29 .0-2.3 15.4c-.2 1.6-1.7 2.6-3.3 2.4l-1.5-.2c-1.6-.2-2.6-1.7-2.4-3.3l2.3-15.4-6.7-1-3.2 21.8c-.1.9.5 1.8 1.4 1.9l17.2 2.5c.9.1 1.8-.5 2-1.4l3.2-21.8-6.7-1m24.6-.3v14.9l-7-14.9h-5.9v24.6h7v-12.4l6 12.4h7.3V6.7h-7.4m28.3-.1-15.7 1.7.8 7.1 3.8-.4 1.8 17.3 8.1-.9-1.8-17.3 3.8-.4-.8-7.1"/><path d="M193.2 7.3c0-1.1.8-2 1.9-2 1 0 1.9.8 1.9 2 0 1.1-.8 2-1.9 2-1.1 0-1.9-.8-1.9-2m1.9 2.4c1.3 0 2.3-1 2.3-2.4 0-1.4-1.1-2.4-2.3-2.4s-2.3 1-2.3 2.4c0 1.4 1.1 2.4 2.3 2.4m-.5-2.2h.5l.7 1.2h.5l-.8-1.2c.4-.1.7-.3.7-.7 0-.5-.3-.8-.9-.8h-1v2.7h.4V7.5m0-.4V6.3h.5c.3 0 .6.1.6.4 0 .4-.3.4-.6.4h-.5"/></svg>
