<?xml version="1.0" encoding="utf-8"?>
<!-- Generator: Adobe Illustrator 16.0.4, SVG Export Plug-In . SVG Version: 6.00 Build 0)  -->
<!DOCTYPE svg PUBLIC "-//W3C//DTD SVG 1.1//EN" "http://www.w3.org/Graphics/SVG/1.1/DTD/svg11.dtd">
<svg version="1.1" id="Layer_1" xmlns="http://www.w3.org/2000/svg" xmlns:xlink="http://www.w3.org/1999/xlink" x="0px" y="0px"
	 width="199px" height="62px" viewBox="0 0 199 62" enable-background="new 0 0 199 62" xml:space="preserve">
<path fill="#FFFFFF" d="M195.036,3.521c-2.049,0.002-3.786,1.626-3.789,3.81c0.003,2.195,1.74,3.822,3.789,3.825
	c2.032-0.003,3.767-1.63,3.77-3.825C198.803,5.147,197.068,3.523,195.036,3.521"/>
<path fill="#FFFFFF" d="M192.828,2.306l-20.596,2.182V2.776h-15.092c0,0,0,1.397-0.014,1.375l-0.643-1.343L144.203,2.76v1.456
	l-24.908-3.67l-1.262,8.556l0.002-0.907c0-5.425-4.238-5.577-4.238-5.577H95.452c-1.47,0-2.811,0.571-3.806,1.499
	c0,0-15.599-1.478-15.601-1.478c-2.064-0.195-4.164,0.698-5.412,2.365c-0.336,0.449-0.625,0.972-0.831,1.493l-0.169-4.108
	L50.056,3.196c-1.833,0.071-3.565,0.789-4.908,2.015l0.078-2.291L28.738,2.36l-0.122,3.628c-1.273-1.168-2.883-1.89-4.611-2.055
	L3.137,1.898L0,34.058l20.877,2.036c0.27,0.025,0.533,0.033,0.799,0.033c1.834,0.002,3.607-0.643,5.027-1.805
	c0.354-0.292,0.68-0.611,0.975-0.952l-0.045,1.28l14.823,0.506l0.026,0.692l6.84-0.281c-3.491,2.2-5.816,6.086-5.816,10.517v3.476
	c0,6.864,5.577,12.437,12.438,12.438L138.268,62c6.867-0.004,12.438-5.576,12.439-12.44l0.004-3.476
	c-0.006-4.686-2.6-8.763-6.428-10.882h27.949V19.529c0,0,1.766-0.185,2.535-0.267c0.234,2.221,1.818,17.255,1.818,17.255
	l15.826-1.672c0,0-1.305-12.312-1.826-17.261c0.793-0.084,3.826-0.413,3.826-0.413L192.828,2.306"/>
<path fill="#FFFFFF" d="M138.271,35.34l-82.326,0.001c-5.924,0-10.743,4.815-10.743,10.744v3.476c0,5.93,4.819,10.745,10.743,10.745
	h82.326c5.928,0,10.742-4.815,10.744-10.745v-3.476C149.014,40.156,144.199,35.341,138.271,35.34"/>
<path fill="none" stroke="#FFFFFF" stroke-width="0.695" d="M138.271,35.34l-82.326,0.001c-5.924,0-10.743,4.815-10.743,10.744
	v3.476c0,5.93,4.819,10.745,10.743,10.745h82.326c5.928,0,10.742-4.815,10.744-10.745v-3.476
	C149.014,40.156,144.199,35.341,138.271,35.34z"/>
<path fill="#FFFFFF" d="M138.271,35.34l-82.326,0.001c-5.924,0-10.743,4.815-10.743,10.744v3.476c0,5.93,4.819,10.745,10.743,10.745
	h82.326c5.928,0,10.742-4.815,10.744-10.745v-3.476C149.014,40.156,144.199,35.341,138.271,35.34"/>
<path d="M55.946,36.036c-5.539,0-10.049,4.507-10.049,10.049v3.479c0,5.542,4.51,10.049,10.049,10.049h82.326
	c5.543,0,10.051-4.507,10.051-10.049v-3.479c0-5.542-4.508-10.049-10.051-10.049H55.946"/>
<path fill="#FFFFFF" d="M46.67,49.564v-3.479c0-5.114,4.162-9.276,9.276-9.276h82.326c5.115,0,9.279,4.162,9.279,9.276v3.479
	c0,5.112-4.164,9.275-9.279,9.275H55.946C50.832,58.84,46.67,54.677,46.67,49.564"/>
<polyline points="136.037,39.389 136.037,43.402 126.627,43.402 126.627,45.734 134.6,45.734 134.6,49.603 126.627,49.603 
	126.627,52.248 136.359,52.248 136.359,56.358 120.523,56.358 120.523,39.389 136.037,39.389 "/>
<path d="M112.98,54.201c0.021-2.561,0.131-5.227-3.529-5.75c2.358-0.48,3.551-2.213,3.551-4.278c0-3.438-3.332-4.784-6.754-4.784
	H95.295v16.97h6.049v-5.888h3.361c3.094,0,2.117,4.157,2.523,5.888h5.729v-2.149L112.98,54.201 M104.461,46.721l-3.09,0.025v-3.317
	h3.414c1.381,0,2.363,0.383,2.363,1.753C107.148,46.553,105.656,46.721,104.461,46.721z"/>
<polyline points="73.595,39.389 73.595,43.668 67.824,43.668 67.824,56.358 61.607,56.358 61.611,43.692 55.836,43.692 
	55.836,39.389 73.595,39.389 "/>
<rect x="80.833" y="39.389" width="6.238" height="16.971"/>
<path d="M50.155,5.588c-1.434,0.058-2.76,0.674-3.734,1.73c-0.923,1-1.422,2.284-1.422,3.637c0,0.074,0.252,6.302,0.252,6.302
	c0.071,1.694,1.323,2.746,2.458,3.007c-0.065-0.016,7.13,2.015,7.141,2.018c0.567,0.16,1.548,1.389,0.425,1.433l-10.873,0.448
	l0.377,9.2l17.959-0.738c1.436-0.058,2.764-0.673,3.74-1.731c0.972-1.054,1.476-2.425,1.417-3.861l-0.237-5.774
	c-0.071-1.699-1.413-2.751-2.635-3.007c0.102,0.025-6.608-1.869-6.608-1.869c-1.018-0.287-2.268-2.248-0.445-2.323
	c0.002,0,9.736-0.399,9.736-0.399l-0.361-8.778L50.155,5.588"/>
<polyline points="30.997,6.346 30.107,32.348 41.817,32.746 42.759,5.232 31.047,4.832 30.997,6.346 "/>
<path d="M27.542,8.322c-0.945-1.15-2.282-1.862-3.763-2.006L5.285,4.513L2.616,31.915l18.492,1.802
	c1.482,0.144,2.933-0.297,4.082-1.243c1.147-0.945,1.861-2.281,2.003-3.76l1.59-16.316C28.929,10.92,28.487,9.471,27.542,8.322
	 M17.844,23.728c-0.031,0.317-0.184,0.602-0.427,0.803c-0.246,0.201-0.556,0.296-0.875,0.265c0,0-1.928-0.187-3.366-0.327
	c0.205-2.088,0.831-8.522,1.034-10.611c1.439,0.141,3.37,0.329,3.37,0.329c0.612,0.059,1.074,0.58,1.074,1.183
	C18.654,15.408,17.844,23.728,17.844,23.728z"/>
<path d="M71.776,8.433L71.776,8.433L69.985,27.29c-0.198,2.071,1.298,3.916,3.328,4.11c0.004,0,13.968,1.325,13.968,1.325
	l0.794-8.365l-6.145-0.582c-0.31-0.029-0.595-0.181-0.8-0.43c-0.226-0.275-0.331-0.625-0.297-0.99c0-0.002,0.68-7.134,0.68-7.134
	c0.034-0.368,0.203-0.692,0.475-0.916c0.248-0.207,0.556-0.303,0.867-0.274c0.002,0,6.146,0.584,6.146,0.584l0.785-8.273
	L75.82,5.019C73.787,4.828,71.972,6.359,71.776,8.433"/>
<path d="M95.456,5.013c-1.765,0-3.2,1.427-3.2,3.184v19.822c0,1.756,1.435,3.182,3.2,3.182h16.995c1.762,0,3.197-1.426,3.197-3.182
	V8.197c0-1.757-1.436-3.184-3.197-3.184H95.456 M101.92,22.139v-8.061c0-0.697,0.576-1.265,1.287-1.265h1.492
	c0.709,0,1.287,0.568,1.287,1.265v8.061c0,0.695-0.578,1.263-1.287,1.263h-1.492C102.496,23.402,101.92,22.834,101.92,22.139z"/>
<path d="M117.883,26.56L117.883,26.56c-0.127,0.851,0.084,1.704,0.6,2.396c0.516,0.696,1.271,1.148,2.125,1.272l17.178,2.536
	c1.762,0.262,3.408-0.961,3.668-2.723c0-0.002,3.441-23.303,3.441-23.303l-9.701-1.429l-2.49,16.878
	c-0.109,0.737-0.795,1.247-1.529,1.137l-1.51-0.221c-0.357-0.053-0.672-0.242-0.887-0.531c-0.214-0.288-0.303-0.642-0.25-0.998
	l2.494-16.883L121.32,3.26L117.883,26.56"/>
<path d="M146.598,32.812h9.977c0,0,0-4.418,0-7.293c1.553,3.214,3.523,7.293,3.523,7.293h9.748V5.17h-10.314c0,0,0,5.624,0,9.662
	c-2.004-4.244-4.547-9.634-4.547-9.634l-8.387-0.036V32.812"/>
<path d="M172.002,6.923l1.07,10.116c0,0,2.719-0.287,3.826-0.405c0.266,2.51,1.83,17.26,1.83,17.26l11.059-1.171
	c0,0-1.562-14.751-1.828-17.262c1.105-0.115,3.822-0.404,3.822-0.404l-1.074-10.118L172.002,6.923"/>
<path fill="#ED1C24" d="M46.773,17.167l-0.251-6.075c-0.087-2.129,1.572-3.93,3.701-4.018L65.901,6.43l0.237,5.754l-8.223,0.335
	c-1.376,0.057-2.462,1.121-2.408,2.357c0.05,1.243,1.177,2.562,2.503,2.936l6.707,1.896c0,0,1.38,0.29,1.435,1.587l0.235,5.774
	c0.089,2.129-1.57,3.929-3.704,4.017l-16.448,0.675l-0.252-6.175l9.36-0.385c1.15-0.046,2.049-0.927,2.004-1.961
	c-0.04-1.033-0.977-2.133-2.079-2.443l-7.213-2.035C48.055,18.762,46.825,18.478,46.773,17.167"/>
<polyline fill="#ED1C24" points="40.363,31.154 31.679,30.859 32.518,6.371 41.201,6.668 40.363,31.154 "/>
<path fill="#ED1C24" d="M23.64,7.795L6.652,6.142L4.277,30.527l16.985,1.656c2.23,0.218,4.215-1.415,4.43-3.642l1.59-16.316
	C27.499,9.996,25.869,8.014,23.64,7.795 M19.357,23.848c-0.143,1.484-1.465,2.574-2.954,2.429l-4.875-0.475l1.326-13.624
	l4.879,0.474c1.485,0.145,2.575,1.469,2.429,2.955L19.357,23.848z"/>
<path fill="#ED1C24" d="M86.428,25.7l-4.634-0.438c-1.507-0.144-2.611-1.521-2.462-3.075l0.679-7.132
	c0.146-1.555,1.486-2.698,2.994-2.555l4.636,0.441l0.5-5.256L75.683,6.501c-1.204-0.114-2.275,0.804-2.394,2.048l-1.79,18.857
	c-0.119,1.246,0.764,2.344,1.966,2.459l12.458,1.183L86.428,25.7"/>
<path fill="#ED1C24" d="M112.457,6.5H95.461c-0.933,0-1.684,0.747-1.684,1.669v19.824c0,0.921,0.751,1.666,1.684,1.666h16.996
	c0.928,0,1.682-0.745,1.682-1.666V8.169C114.139,7.247,113.385,6.5,112.457,6.5 M107.506,22.111c0,1.535-1.254,2.778-2.801,2.778
	h-1.494c-1.547,0-2.801-1.243-2.801-2.778v-8.06c0-1.535,1.254-2.778,2.801-2.778h1.494c1.547,0,2.801,1.243,2.801,2.778V22.111z"/>
<path fill="#ED1C24" d="M136.479,7l-2.27,15.384c-0.232,1.565-1.686,2.643-3.252,2.412l-1.51-0.222
	c-1.564-0.23-2.643-1.683-2.414-3.25l2.271-15.382l-6.701-0.99l-3.217,21.804c-0.139,0.937,0.51,1.809,1.447,1.948l17.176,2.534
	c0.943,0.141,1.812-0.51,1.951-1.446l3.219-21.803L136.479,7"/>
<polyline fill="#ED1C24" points="161.053,6.658 161.053,21.564 154.031,6.682 148.121,6.658 148.121,31.27 155.064,31.27 
	155.064,18.868 161.053,31.27 168.336,31.27 168.336,6.658 161.053,6.658 "/>
<polyline fill="#ED1C24" points="189.367,6.578 173.672,8.241 174.428,15.347 178.25,14.943 180.082,32.202 188.129,31.349 
	186.299,14.088 190.119,13.684 189.367,6.578 "/>
<path d="M193.156,7.333c0-1.117,0.82-1.959,1.877-1.959c1.041,0,1.863,0.842,1.863,1.959c0,1.137-0.822,1.973-1.863,1.973
	C193.977,9.306,193.156,8.47,193.156,7.333 M195.033,9.7c1.256,0,2.328-0.999,2.328-2.367c0-1.355-1.072-2.355-2.328-2.355
	c-1.268,0-2.34,1-2.34,2.355C192.693,8.701,193.766,9.7,195.033,9.7z M194.547,7.52h0.461l0.699,1.181h0.455l-0.758-1.2
	c0.393-0.05,0.688-0.261,0.688-0.749c0-0.536-0.307-0.774-0.938-0.774h-1.012v2.723h0.404V7.52z M194.547,7.169V6.328h0.547
	c0.281,0,0.58,0.062,0.58,0.4c0,0.418-0.307,0.441-0.646,0.441H194.547z"/>
</svg>
